<?xml version="1.0" encoding="UTF-8"?>
<svg viewBox="0 0 512 512" version="1.1" xmlns="http://www.w3.org/2000/svg" xmlns:xlink="http://www.w3.org/1999/xlink">
    <path transform="translate(34.000000, 15.000000)" fill="#0050C4" fill-rule="evenodd" d="M272,13.8675135 L393.702503,84.1324865 C424.642611,101.995766 443.702503,135.008468 443.702503,170.735027 L443.702503,311.264973 C443.702503,346.991532 424.642611,380.004234 393.702503,397.867513 L272,468.132487 C241.059892,485.995766 202.940108,485.995766 172,468.132487 L50.2974966,397.867513 C19.357389,380.004234 0.297496631,346.991532 0.297496631,311.264973 L0.297496631,170.735027 C0.297496631,135.008468 19.357389,101.995766 50.2974966,84.1324865 L172,13.8675135 C202.940108,-3.99576604 241.059892,-3.99576604 272,13.8675135 Z M222,157 C175.608081,157 138,194.608081 138,241 C138,287.391919 175.608081,325 222,325 C268.391919,325 306,287.391919 306,241 C306,194.608081 268.391919,157 222,157 Z"></path>
</svg>