<?xml version="1.0" encoding="UTF-8"?>
<svg class="svg-logo" viewBox="0 0 512 512" aria-labelledby="logo-title logo-desc" role="img" version="1.1" xmlns="http://www.w3.org/2000/svg" xmlns:xlink="http://www.w3.org/1999/xlink">
    <title id="logo-title">
        More Than Testing
    </title>
    <desc id="logo-desc">
        A logo of More Than Testing
    </desc>
    <path
        d="M306 28.9L427.7 99.1C458.6 117 477.7 150 477.7 185.7L477.7 326.3C477.7 362 458.6 395 427.7 412.9L306 483.1C275.1 501 236.9 501 206 483.1L84.3 412.9C53.4 395 34.3 362 34.3 326.3L34.3 185.7C34.3 150 53.4 117 84.3 99.1L206 28.9C236.9 11 275.1 11 306 28.9ZM256 172C209.6 172 172 209.6 172 256 172 302.4 209.6 340 256 340 302.4 340 340 302.4 340 256 340 209.6 302.4 172 256 172Z"
        fill="#0050C4"
        fill-rule="evenodd"
    />
</svg>