<?xml version="1.0" encoding="UTF-8"?>
<svg class="svg-logo-full" viewBox="0 0 3856 483" version="1.1" xmlns="http://www.w3.org/2000/svg" xmlns:xlink="http://www.w3.org/1999/xlink" aria-labelledby="logo-title logo-desc" role="img">
    <title>
        More Than Testing
    </title>
    <desc>
        A logo of More Than Testing
    </desc>
        <g fill="none" fill-rule="evenodd" transform="translate(0.297497, 0.470054)">
            <path
                d="M271.702503,13.3974596 L393.405007,83.6624327 C424.345114,101.525712 443.405007,134.538414 443.405007,170.264973 L443.405007,310.794919 C443.405007,346.521478 424.345114,379.53418 393.405007,397.39746 L271.702503,467.662433 C240.762396,485.525712 202.642611,485.525712 171.702503,467.662433 L50,397.39746 C19.0598923,379.53418 -5.18696197e-13,346.521478 -5.75539616e-13,310.794919 L-5.89750471e-13,170.264973 C-5.82645043e-13,134.538414 19.0598923,101.525712 50,83.6624327 L171.702503,13.3974596 C202.642611,-4.46581987 240.762396,-4.46581987 271.702503,13.3974596 Z M221.702503,156.529946 C175.310584,156.529946 137.702503,194.138027 137.702503,240.529946 C137.702503,286.921865 175.310584,324.529946 221.702503,324.529946 C268.094422,324.529946 305.702503,286.921865 305.702503,240.529946 C305.702503,194.138027 268.094422,156.529946 221.702503,156.529946 Z"
                fill="#0050C4">
            </path>
            <path 
                d="M642.179689,348.529946 L642.179689,219.410751 C642.179689,197.819863 654.821722,184.041467 673.003523,184.041467 C691.043279,184.041467 702.975085,196.6835 702.975085,216.853935 L702.975085,348.529946 L769.736385,348.529946 L769.736385,218.274389 C769.736385,197.393727 781.242056,184.041467 800.418174,184.041467 C818.031794,184.041467 830.531782,195.831228 830.531782,217.564162 L830.531782,348.529946 L899.991943,348.529946 L899.991943,201.655086 C899.991943,155.490358 871.582879,127.50743 830.389737,127.50743 C798.145449,127.50743 772.719337,144.410823 764.622754,170.405116 L762.350029,170.405116 C756.526171,144.268777 733.088693,127.50743 702.83304,127.50743 C673.003523,127.50743 650.276272,143.842641 641.185372,170.405116 L638.770601,170.405116 L638.770601,130.348336 L572.719528,130.348336 L572.719528,348.529946 L642.179689,348.529946 Z M1033.90946,352.64926 C1102.51735,352.64926 1144.13662,307.336804 1144.13662,240.149368 C1144.13662,172.819886 1102.51735,127.50743 1033.90946,127.50743 C965.301567,127.50743 923.682288,172.819886 923.682288,240.149368 C923.682288,307.336804 965.301567,352.64926 1033.90946,352.64926 Z M1034.33559,300.234538 C1008.62539,300.234538 994.420857,275.802743 994.420857,239.723232 C994.420857,203.501675 1008.62539,178.927835 1034.33559,178.927835 C1059.19352,178.927835 1073.39805,203.501675 1073.39805,239.723232 C1073.39805,275.802743 1059.19352,300.234538 1034.33559,300.234538 Z M1238.13928,348.529946 L1238.13928,230.06415 C1238.13928,204.069857 1256.60518,186.598282 1281.46311,186.598282 C1289.70174,186.598282 1302.05968,188.018736 1308.73581,190.291461 L1308.73581,129.9222 C1302.91195,128.359702 1295.66764,127.365384 1289.2756,127.365384 C1265.41199,127.365384 1246.37791,141.285826 1238.42338,170.121025 L1236.15065,170.121025 L1236.15065,130.348336 L1168.67912,130.348336 L1168.67912,348.529946 L1238.13928,348.529946 Z M1416.65882,352.64926 C1473.90309,352.64926 1511.5451,324.950423 1519.49964,282.052737 L1455.72129,280.206148 C1450.32357,294.69477 1436.11903,302.507263 1417.93723,302.507263 C1391.23271,302.507263 1374.75546,284.751598 1374.75546,258.047078 L1374.75546,256.200489 L1520.20986,256.200489 L1520.20986,238.87096 C1520.20986,166.996028 1476.4599,127.50743 1414.52814,127.50743 C1348.61912,127.50743 1306.28961,172.677841 1306.28961,240.291413 C1306.28961,310.17771 1348.05094,352.64926 1416.65882,352.64926 Z M1455.57924,215.859618 L1374.75546,215.859618 C1375.74977,194.126684 1392.93726,177.649427 1415.9486,177.649427 C1438.81789,177.649427 1455.29515,193.558503 1455.57924,215.859618 Z M1711.34002,351.654943 C1728.10137,350.802671 1740.17522,347.393584 1746.85135,345.404949 L1736.34,295.262952 C1733.35705,295.973178 1726.39683,297.393631 1721.14115,297.393631 C1709.91957,297.393631 1703.52753,292.848181 1703.52753,279.922057 L1703.52753,181.484651 L1742.87408,181.484651 L1742.87408,130.348336 L1703.52753,130.348336 L1703.52753,78.0756586 L1634.06737,78.0756586 L1634.06737,130.348336 L1605.23217,130.348336 L1605.23217,181.484651 L1634.06737,181.484651 L1634.06737,287.592504 C1633.64123,331.768599 1662.33439,353.927668 1711.34002,351.654943 Z M1841.28007,348.529946 L1841.28007,224.098247 C1841.42211,199.240316 1856.19483,184.467603 1878.21185,184.467603 C1900.28995,184.467603 1913.17963,198.528683 1913.29739,222.378224 L1913.29704,348.529946 L1982.75771,348.529946 L1982.75771,209.467579 C1982.89925,160.035808 1952.78564,127.50743 1906.90501,127.50743 C1874.23458,127.50743 1851.22324,143.558551 1841.42211,170.405116 L1839.00734,170.405116 L1839.00734,57.6211327 L1771.81991,57.6211327 L1771.81991,348.529946 L1841.28007,348.529946 Z M2076.33374,352.223124 C2106.73144,352.223124 2127.75414,340.433363 2139.68595,318.132248 L2141.39049,318.132248 L2141.39049,348.529946 L2206.73134,348.529946 L2206.73134,200.234633 C2206.73134,154.069904 2165.68024,127.50743 2110.14052,127.50743 C2051.47581,127.50743 2018.2372,157.052856 2012.69743,196.825545 L2076.75987,199.09827 C2079.74282,185.177829 2091.2485,176.65511 2109.57234,176.65511 C2126.61778,176.65511 2137.41322,184.893739 2137.41322,199.524406 L2137.41322,200.234633 C2137.41322,213.586893 2122.9246,216.427799 2085.70873,219.694842 C2041.53263,223.38802 2004.60085,239.723232 2004.60085,288.01864 C2004.60085,331.200417 2034.57241,352.223124 2076.33374,352.223124 Z M2097.78258,306.768622 C2081.73146,306.768622 2070.36783,299.098175 2070.36783,284.609553 C2070.36783,270.547066 2081.44737,262.024347 2101.19167,259.041395 C2114.11779,257.194806 2130.02687,254.3539 2137.83936,250.234585 L2137.83936,270.973202 C2137.83936,292.28 2119.94165,306.768622 2097.78258,306.768622 Z M2307.41012,348.529946 L2307.41012,224.098247 C2307.55216,199.240316 2322.04079,184.467603 2344.05781,184.467603 C2365.85466,184.467603 2378.88075,198.667902 2379.00126,222.382401 L2379.00096,348.529946 L2448.46162,348.529946 L2448.46162,209.467579 C2448.60317,160.319898 2418.6316,127.50743 2372.75096,127.50743 C2340.50668,127.50743 2316.07488,143.842641 2306.4158,170.405116 L2304.00103,170.405116 L2304.00103,130.348336 L2237.94996,130.348336 L2237.94996,348.529946 L2307.41012,348.529946 Z M2647.11969,351.654943 C2663.88104,350.802671 2675.95489,347.393584 2682.63102,345.404949 L2672.11967,295.262952 C2669.13672,295.973178 2662.1765,297.393631 2656.92082,297.393631 C2645.69924,297.393631 2639.3072,292.848181 2639.3072,279.922057 L2639.3072,181.484651 L2678.65375,181.484651 L2678.65375,130.348336 L2639.3072,130.348336 L2639.3072,78.0756586 L2569.84704,78.0756586 L2569.84704,130.348336 L2541.01184,130.348336 L2541.01184,181.484651 L2569.84704,181.484651 L2569.84704,287.592504 C2569.4209,331.768599 2598.11406,353.927668 2647.11969,351.654943 Z M2802.76994,352.64926 C2860.0142,352.64926 2897.65621,324.950423 2905.61075,282.052737 L2841.8324,280.206148 C2836.43468,294.69477 2822.23014,302.507263 2804.04834,302.507263 C2777.34382,302.507263 2760.86657,284.751598 2760.86657,258.047078 L2760.86657,256.200489 L2906.32097,256.200489 L2906.32097,238.87096 C2906.32097,166.996028 2862.57101,127.50743 2800.63926,127.50743 C2734.73023,127.50743 2692.40072,172.677841 2692.40072,240.291413 C2692.40072,310.17771 2734.16205,352.64926 2802.76994,352.64926 Z M2841.69035,215.859618 L2760.86657,215.859618 C2761.86088,194.126684 2779.04837,177.649427 2802.05971,177.649427 C2824.92901,177.649427 2841.40626,193.558503 2841.69035,215.859618 Z M3025.6077,352.64926 C3083.98832,352.64926 3126.45987,323.52997 3126.74396,278.643649 C3126.45987,246.825498 3105.43716,227.93347 3061.9713,219.552796 L3019.92588,211.598259 C3001.45999,207.90508 2995.49409,201.370996 2995.63613,192.990322 C2995.49409,181.910787 3008.42021,175.092612 3024.47133,175.092612 C3042.79518,175.092612 3055.57926,184.893739 3057.56789,198.672135 L3121.34624,196.967591 C3117.65306,153.785814 3082.28378,127.50743 3023.19292,127.50743 C2964.10207,127.50743 2926.46006,153.217632 2926.74415,196.967591 C2926.46006,230.490286 2947.90891,252.081175 2991.51682,260.177758 L3029.58496,267.422069 C3047.62472,270.973202 3055.86335,276.655015 3056.14744,286.314096 C3055.86335,297.251586 3043.64745,304.495897 3025.89179,304.495897 C3006.14749,304.495897 2992.79523,295.973178 2989.81227,280.064102 L2921.20439,281.768646 C2926.17597,324.950423 2963.2498,352.64926 3025.6077,352.64926 Z M3241.34318,351.654943 C3258.10453,350.802671 3270.17838,347.393584 3276.85451,345.404949 L3266.34315,295.262952 C3263.3602,295.973178 3256.39998,297.393631 3251.1443,297.393631 C3239.92272,297.393631 3233.53069,292.848181 3233.53069,279.922057 L3233.53069,181.484651 L3272.87724,181.484651 L3272.87724,130.348336 L3233.53069,130.348336 L3233.53069,78.0756586 L3164.07052,78.0756586 L3164.07052,130.348336 L3135.23532,130.348336 L3135.23532,181.484651 L3164.07052,181.484651 L3164.07052,287.592504 C3163.64439,331.768599 3192.33754,353.927668 3241.34318,351.654943 Z M3332.07871,104.922224 C3351.82301,104.922224 3367.73209,90.0074654 3367.73209,71.6836193 C3367.73209,53.3597731 3351.82301,38.5870599 3332.07871,38.5870599 C3312.47646,38.5870599 3296.42534,53.3597731 3296.42534,71.6836193 C3296.42534,90.0074654 3312.47646,104.922224 3332.07871,104.922224 Z M3366.73777,348.529946 L3366.73777,130.348336 L3297.27761,130.348336 L3297.27761,348.529946 L3366.73777,348.529946 Z M3469.12098,348.529946 L3469.12098,224.098247 C3469.26302,199.240316 3483.75164,184.467603 3505.76867,184.467603 C3527.56552,184.467603 3540.5916,198.667902 3540.71212,222.382401 L3540.71182,348.529946 L3610.17248,348.529946 L3610.17248,209.467579 C3610.31402,160.319898 3580.34246,127.50743 3534.46182,127.50743 C3502.21754,127.50743 3477.78574,143.842641 3468.12666,170.405116 L3465.71189,170.405116 L3465.71189,130.348336 L3399.66082,130.348336 L3399.66082,348.529946 L3469.12098,348.529946 Z M3743.94733,434.8935 C3809.71432,434.8935 3854.60064,404.921938 3854.60064,349.382218 L3854.60064,130.348336 L3785.42457,130.348336 L3785.42457,167.706255 L3783.43593,167.706255 C3775.05526,147.677865 3756.02119,127.50743 3721.64622,127.50743 C3676.04967,127.50743 3634.71448,162.592623 3634.71448,239.15505 C3634.71448,313.302707 3674.06104,345.546994 3721.93031,345.546994 C3754.03255,345.546994 3775.4814,330.632236 3783.72002,310.461801 L3786.13479,310.461801 L3786.13479,348.814037 C3786.13479,376.654919 3769.08936,386.740137 3745.79392,386.740137 C3723.49281,386.740137 3710.14055,378.217418 3706.44737,364.723113 L3640.68039,368.416291 C3645.79402,406.626482 3681.73149,434.8935 3743.94733,434.8935 Z M3746.07801,294.978861 C3720.36781,294.978861 3706.02123,274.098199 3706.02123,239.15505 C3706.02123,204.353947 3720.22577,181.768742 3746.07801,181.768742 C3771.50413,181.768742 3786.27684,203.785766 3786.27684,239.15505 C3786.27684,274.240244 3771.36208,294.978861 3746.07801,294.978861 Z"
                fill="#1A1A1A"
                fill-rule="nonzero">
            </path>
        </g>
</svg>